<svg width="54" height="54" viewBox="0 0 54 54" fill="none" xmlns="http://www.w3.org/2000/svg">
<path d="M9.58906 32.7097C8.59906 29.9197 8.30906 27.0297 8.72906 24.0997C9.28906 20.2197 10.9291 16.8197 13.6091 14.0097C16.6691 10.8097 20.4891 8.91973 24.9691 8.39973C26.9991 8.15973 29.1391 8.30973 31.3291 8.83973C32.2891 9.06973 33.1891 8.57973 33.4191 7.69973C33.5391 7.25973 33.4791 6.80973 33.2591 6.43973C33.0291 6.04973 32.6291 5.76973 32.1491 5.64973C31.4791 5.48973 30.7491 5.32973 29.9991 5.21973C28.1891 4.96973 26.3991 4.95973 24.5091 5.18973C23.5891 5.29973 22.6291 5.40973 21.6991 5.63973C17.3091 6.70973 13.4291 9.08973 10.4691 12.5297C7.53906 15.9397 5.76906 20.0797 5.34906 24.5197C5.02906 27.8797 5.44906 31.1297 6.59906 34.1897C6.69906 34.4597 6.80906 34.7297 6.91906 35.0097L3.03906 35.2197L13.3991 41.9597L10.8291 30.0897L9.58906 32.7097Z" fill="#D90F0F"/>
<path d="M50.3291 17.6297L40.1091 11.1297L42.8591 22.9397L44.0691 20.3297C45.1691 23.3397 45.4691 26.4197 44.9591 29.5297C44.1791 34.2897 41.8991 38.1597 38.1991 41.0397C33.5691 44.6297 28.2591 45.7797 22.4091 44.4497C21.4391 44.2297 20.5591 44.7097 20.3191 45.5997C20.1991 46.0497 20.2591 46.5097 20.4891 46.8797C20.7291 47.2797 21.1491 47.5497 21.6491 47.6597C23.4891 48.0397 25.1591 48.2297 26.7891 48.2297C27.4991 48.2297 28.1991 48.1897 28.8991 48.1197C29.8591 48.0197 30.8591 47.9197 31.8291 47.6897C41.1091 45.5197 47.7891 37.6397 48.4391 28.0797C48.6791 24.5697 48.0891 21.1797 46.6791 17.9797L50.3191 17.6297H50.3291Z" fill="#D90F0F"/>
<path d="M26.9491 41.5797C30.8991 41.5797 34.6291 40.0297 37.4491 37.1997C40.2891 34.3497 41.8391 30.5797 41.8091 26.5997C41.7791 22.5797 40.2091 18.8297 37.3791 16.0197C34.5491 13.2197 30.7991 11.6697 26.7891 11.7097C22.7791 11.7297 19.0291 13.3097 16.2391 16.1397C13.4391 18.9797 11.9091 22.7697 11.9391 26.8097C12.0091 34.9597 18.6591 41.5797 26.7791 41.5797H26.9591H26.9491ZM35.1191 18.4497C37.3091 20.6597 38.5191 23.5597 38.5091 26.6397C38.4991 29.7497 37.2691 32.6797 35.0591 34.8797C32.8491 37.0697 29.9391 38.2797 26.8091 38.2797C20.4191 38.2597 15.2191 33.0197 15.2291 26.6097C15.2291 23.5197 16.4491 20.6097 18.6591 18.4097C20.8591 16.2097 23.7691 14.9997 26.8691 14.9997C29.9791 14.9997 32.9191 16.2297 35.1291 18.4497H35.1191Z" fill="#D90F0F"/>
<path d="M25.2291 27.9497C25.8591 27.9897 26.4991 27.9897 27.1191 27.9797C27.4691 27.9797 27.8191 27.9797 28.1691 27.9797C28.4991 27.9797 28.5391 28.0197 28.5391 28.3497C28.5391 28.9997 28.5391 29.6097 28.5391 30.1997C28.5391 30.5097 28.4791 30.5597 28.1691 30.5597C27.7091 30.5597 27.2591 30.5597 26.7991 30.5597H25.8291C25.6891 30.5597 25.3691 30.5597 25.3091 30.5297C25.2591 30.4697 25.1891 30.1497 25.1591 30.0097C24.9691 29.1097 24.2091 28.5697 23.3291 28.6497C22.4591 28.7497 21.8291 29.5097 21.8691 30.4397C21.9491 32.2497 23.3691 33.7097 25.1691 33.8497C25.1891 33.8497 25.2091 33.8497 25.2291 33.8497C25.2291 34.0097 25.2291 34.1697 25.2291 34.3297C25.2491 35.3097 25.9191 35.9997 26.8691 35.9997H27.0991L27.1091 35.9797C27.9291 35.8697 28.4891 35.2297 28.5091 34.3297C28.5091 34.1597 28.5091 33.9897 28.5091 33.8097C30.2891 33.6697 31.5691 32.4797 31.8091 30.7097C31.8791 30.1797 31.8791 29.6497 31.8691 29.1797C31.8691 28.9397 31.8691 28.6997 31.8691 28.4697C31.8991 27.3697 31.5091 26.3697 30.7691 25.6397C30.0291 24.9197 29.0491 24.5497 27.9991 24.6197C27.3291 24.6597 26.6391 24.6397 25.9391 24.6297H25.5391C25.2691 24.6197 25.1991 24.5397 25.1891 24.2597C25.1891 23.6697 25.1891 23.0697 25.1891 22.4997C25.1891 22.0797 25.1991 22.0697 25.6191 22.0597C26.1291 22.0597 26.6591 22.0597 27.2191 22.0597H27.8591C28.0291 22.0597 28.3591 22.0597 28.4191 22.0897C28.4691 22.1497 28.5391 22.4597 28.5791 22.6197C28.7691 23.4897 29.5391 24.0797 30.3791 23.9797C31.2891 23.8697 31.9191 23.1097 31.8691 22.1697C31.7891 20.5197 30.6091 19.1397 28.9991 18.8297C28.8391 18.7997 28.6891 18.7797 28.5191 18.7597C28.5191 18.5997 28.5191 18.4397 28.5191 18.2797C28.5191 17.7997 28.3491 17.3797 28.0591 17.0697C27.7491 16.7297 27.3191 16.5597 26.8491 16.5697C25.9291 16.5897 25.2491 17.2997 25.2291 18.2697C25.2291 18.4297 25.2291 18.5897 25.2291 18.7497C23.4591 18.8997 22.1491 20.1297 21.9291 21.8897C21.8291 22.6797 21.8191 23.5597 21.8891 24.5897C22.0191 26.4697 23.3691 27.8097 25.2391 27.9197L25.2291 27.9497Z" fill="#D90F0F"/>
</svg>
