<svg width="116" height="19" viewBox="0 0 116 19" fill="none" xmlns="http://www.w3.org/2000/svg">
<mask id="mask0_10092_9350" style="mask-type:alpha" maskUnits="userSpaceOnUse" x="0" y="0" width="116" height="19">
<path fill-rule="evenodd" clip-rule="evenodd" d="M10 15.27L16.18 19L14.54 11.97L20 7.24L12.81 6.63L10 0L7.19 6.63L0 7.24L5.46 11.97L3.82 19L10 15.27ZM34 15.27L40.18 19L38.54 11.97L44 7.24L36.81 6.63L34 0L31.19 6.63L24 7.24L29.46 11.97L27.82 19L34 15.27ZM64.18 19L58 15.27L51.82 19L53.46 11.97L48 7.24L55.19 6.63L58 0L60.81 6.63L68 7.24L62.54 11.97L64.18 19ZM82 15.27L88.18 19L86.54 11.97L92 7.24L84.81 6.63L82 0L79.19 6.63L72 7.24L77.46 11.97L75.82 19L82 15.27ZM112.18 19L106 15.27L99.82 19L101.46 11.97L96 7.24L103.19 6.63L106 0L108.81 6.63L116 7.24L110.54 11.97L112.18 19Z" fill="#D90F0F"/>
</mask>
<g mask="url(#mask0_10092_9350)">
<rect y="-2" width="116" height="24" fill="url(#paint0_linear_10092_9350)"/>
</g>
<defs>
<linearGradient id="paint0_linear_10092_9350" x1="-2.04408e-07" y1="17.0588" x2="116" y2="17.0588" gradientUnits="userSpaceOnUse">
<stop stop-color="#D90F0F"/>
<stop offset="0.776042" stop-color="#FF8651"/>
</linearGradient>
</defs>
</svg>
