<svg width="54" height="54" viewBox="0 0 54 54" fill="none" xmlns="http://www.w3.org/2000/svg">
<path d="M34.5782 7.11684C36.255 7.80285 36.9127 9.3114 36.255 10.7767C35.6072 12.2219 34.1004 12.6998 32.4553 11.9938C27.7148 9.95911 23.0193 10.0557 18.437 12.4351C12.4112 15.5637 8.97779 22.3822 10.0617 28.9093C11.2173 35.8759 16.434 41.1858 23.2258 42.3114C32.1056 43.7833 40.401 37.7241 41.6981 28.8077C41.803 28.09 41.8296 27.3574 41.8529 26.6315C41.9062 25.028 43.0368 23.8874 44.5736 23.9107C46.0955 23.934 47.2194 25.1329 47.1861 26.7363C47.0712 32.2943 45.1647 37.148 41.3351 41.1858C36.3741 46.4148 29.2221 48.6742 22.1701 47.5364C14.0329 46.2293 6.96805 39.599 5.16811 31.5401C4.86839 30.1897 4.73685 28.8044 4.52539 27.434C4.52539 26.8512 4.52539 26.2685 4.52539 25.6857C4.64861 24.7433 4.74851 23.7958 4.90003 22.8584C6.23209 14.6679 12.8524 7.63468 20.9546 5.84306C25.567 4.8213 30.241 5.34105 34.5782 7.11684Z" fill="#D90F0F"/>
<path d="M48.3767 13.0745C41.5982 19.833 34.8346 26.6065 28.0645 33.3733C26.5243 34.9135 25.1373 34.9102 23.5921 33.365C21.0762 30.8491 18.5586 28.3348 16.046 25.8156C15.2518 25.018 15.0237 24.0606 15.3916 23.0049C15.753 21.9676 16.5322 21.3848 17.6162 21.2549C18.5003 21.15 19.2413 21.4814 19.864 22.1075C21.6706 23.9207 23.4839 25.7273 25.2905 27.5389C25.452 27.7004 25.5885 27.8869 25.7717 28.1034C26.0048 27.8803 26.1813 27.7171 26.3528 27.5472C32.5918 21.3099 38.8291 15.0675 45.0715 8.83353C46.3947 7.51161 48.0878 7.57947 49.0846 8.75089C50.3637 10.2541 49.6494 11.805 48.3767 13.0745Z" fill="#D90F0F"/>
</svg>
