<svg width="54" height="54" viewBox="0 0 54 54" fill="none" xmlns="http://www.w3.org/2000/svg">
<path d="M51.7293 26.0687L51.6893 25.9787C51.3093 23.3287 50.0193 21.2287 47.8493 19.7487C47.3993 19.4387 46.9293 19.1887 46.4293 18.9487C49.0593 15.2487 48.6993 10.1587 45.4893 6.90866C43.2193 4.60866 39.8493 3.55866 36.8993 4.22866C33.2193 5.06866 30.8093 7.25866 29.7093 10.7387C28.0693 10.2787 26.3993 10.2787 24.7193 10.7387C24.0293 8.46866 22.5293 6.55866 20.4893 5.34866C18.2793 4.02866 15.6893 3.69866 13.1993 4.38866C10.1493 5.23866 8.0093 7.20866 6.8393 10.2287C5.9493 12.5387 6.0893 15.4887 7.2093 17.5687C7.4193 17.9687 7.6593 18.3487 7.8993 18.7187C5.0193 19.8187 3.1293 21.9687 2.2793 25.1387C2.2093 25.3987 2.1593 25.6487 2.1093 25.8987L2.0493 26.1887L2.0293 39.3987L2.0693 39.5987C2.4493 41.0387 3.1793 41.9687 4.2893 42.4287C4.9093 42.6887 5.6193 42.8287 6.2793 42.8387C8.0893 42.8587 9.9293 42.8587 11.7193 42.8587H13.5293C13.5293 43.2587 13.5293 43.6487 13.5293 44.0487V44.3287C13.5293 44.8187 13.5393 45.3287 13.6093 45.8587C13.8693 47.7287 15.4693 49.1587 17.3493 49.1687C19.1993 49.1787 21.0793 49.1887 22.9293 49.1887H36.0793C38.5893 49.1887 40.2793 47.4887 40.2893 44.9787C40.2893 44.2787 40.2893 43.5787 40.2893 42.8687H43.0893C44.5893 42.8687 46.1093 42.8687 47.6193 42.8687C49.3593 42.8687 50.6593 42.0787 51.3893 40.5987C51.5093 40.3587 51.5793 40.1287 51.6693 39.8687L51.7193 39.7087L51.7893 26.3287L51.7293 26.0887V26.0687ZM44.3793 14.3887C44.1293 16.0787 43.1193 17.5487 41.6093 18.4187C40.0693 19.3087 38.2593 19.4587 36.6393 18.8187C36.6193 18.8187 36.6093 18.8087 36.5893 18.7987C36.2993 16.2187 35.1193 14.0787 33.0793 12.4487C33.5593 9.82866 35.9393 7.78866 38.5693 7.77866C40.2693 7.77866 41.7693 8.37866 42.8093 9.47866C44.1193 10.8787 44.6493 12.5287 44.3793 14.3887ZM36.2493 22.5887C37.1193 22.8287 37.9593 22.9487 38.7893 22.9287C40.3593 22.9087 41.6893 22.5887 42.8493 21.9487C43.0893 21.8187 43.3293 21.8087 43.8493 21.9487C46.3593 22.5487 48.0593 24.6887 48.0793 27.2687C48.1093 30.2187 48.0993 33.2187 48.0893 36.1187V38.7487C48.0893 39.1187 48.0093 39.1187 47.8393 39.1187C45.7293 39.1387 43.5893 39.1387 41.5093 39.1187H40.2893V33.4587C40.1593 29.7487 38.2293 26.7987 34.9293 25.2787C35.5193 24.4487 35.9593 23.5587 36.2593 22.5787L36.2493 22.5887ZM32.6593 12.5287H32.7393V12.5387H32.6593V12.5287ZM27.4193 25.5687C25.8793 25.6087 24.3393 25.0087 23.2293 23.9387C22.1393 22.8987 21.5193 21.4887 21.4993 19.9887C21.4693 18.4187 22.0293 16.9487 23.0793 15.8587C24.1493 14.7587 25.6293 14.1387 27.2493 14.1187C27.2693 14.1187 27.2993 14.1187 27.3193 14.1187C30.4193 14.1187 32.8893 16.6387 32.9493 19.8887C32.9993 22.8387 30.4193 25.4987 27.4193 25.5687ZM17.2493 33.7787C17.2493 31.6487 18.3293 29.7187 19.9793 28.8587C20.8293 28.4187 21.5293 28.2087 22.1993 28.1887C22.2393 28.1887 22.2893 28.1887 22.3293 28.1887C22.7093 28.1887 22.8893 28.2287 22.9693 28.2687C25.8293 29.6187 28.6893 29.6087 31.4493 28.2487C31.6893 28.1287 31.9593 28.1887 32.5193 28.3387C34.9893 29.0187 36.5393 31.0887 36.5593 33.7487C36.5793 36.7387 36.5693 39.7687 36.5593 42.7187V44.9987C36.5593 45.4487 36.5293 45.4687 36.0893 45.4687H17.6993C17.2693 45.4687 17.2493 45.4487 17.2493 45.0287C17.2493 40.9887 17.2493 37.2987 17.2493 33.7787ZM13.5193 38.0087V39.1287H6.3793C5.95263 39.1287 5.7393 38.9187 5.7393 38.4987V27.4287C5.7393 25.7187 6.3093 24.3487 7.4793 23.2687C8.5093 22.3087 9.7393 21.8187 11.1493 21.8187L11.3293 21.8487C13.5293 22.9687 15.8393 23.2187 18.1893 22.5887C18.4693 23.4787 18.8693 24.3087 19.3793 25.0787C19.0293 25.2287 18.6793 25.3787 18.3493 25.5387C16.4093 26.4787 14.7793 28.4587 13.9993 30.8287C13.7293 31.6487 13.5793 32.5987 13.5493 33.7487C13.5093 35.1987 13.5193 36.6887 13.5293 37.9987L13.5193 38.0087ZM21.0693 12.6887C20.9393 12.7887 20.7893 12.9087 20.6493 13.0487C19.0493 14.6087 18.1093 16.5287 17.8193 18.7987C15.9793 19.5087 14.2693 19.3387 12.6093 18.2887C10.2193 16.7887 9.3293 13.6787 10.5293 11.0587C11.3893 9.06866 13.5393 7.74866 15.6693 7.74866C16.0493 7.74866 16.4393 7.78866 16.8093 7.87866C19.3093 8.47866 20.7893 9.98866 21.3093 12.4887C21.2493 12.5487 21.1393 12.6387 21.0593 12.6987L21.0693 12.6887Z" fill="#D90F0F"/>
</svg>
