<svg width="54" height="54" viewBox="0 0 54 54" fill="none" xmlns="http://www.w3.org/2000/svg">
<path d="M19.5594 46.6491C17.5894 46.6491 15.6194 46.6791 13.6494 46.6291C13.0394 46.6191 12.3694 46.4991 11.8294 46.2391C10.3294 45.5191 9.73941 44.2291 9.73941 42.5891C9.74941 31.9991 9.73941 21.3991 9.73941 10.8091C9.73941 10.6391 9.73941 10.4691 9.75941 10.2991C9.90941 8.20906 11.4094 6.73906 13.4994 6.73906C21.0294 6.71906 28.5594 6.73906 36.0894 6.73906C36.9394 6.73906 37.7294 6.97906 38.4094 7.51906C39.4594 8.34906 39.8594 9.44906 39.8594 10.7591C39.8494 14.3191 39.8394 17.8691 39.8694 21.4291C39.8694 21.9091 39.9994 22.4491 40.2294 22.8691C40.6194 23.5591 41.4894 23.7891 42.2594 23.5491C43.0694 23.2891 43.5394 22.6091 43.5394 21.6291C43.5394 17.9291 43.5694 14.2391 43.5394 10.5391C43.4994 6.81906 41.0994 3.89906 37.5694 3.17906C37.3594 3.13906 36.9494 3.03906 36.9494 3.03906H12.8394C12.7594 3.03906 12.2994 3.11906 12.0094 3.17906C8.71941 3.80906 6.00941 6.75906 6.02941 10.7091C6.06941 20.5691 6.02941 30.4391 6.04941 40.2991C6.04941 41.5991 6.01941 42.9191 6.18941 44.2091C6.58941 47.2291 9.22941 49.7891 12.2494 50.2391C12.3794 50.2591 12.5094 50.2991 12.6494 50.3391H20.0394C20.2994 50.1891 20.5894 50.0691 20.8194 49.8791C21.4094 49.3891 21.6094 48.5891 21.3494 47.8691C21.0794 47.1091 20.4294 46.6491 19.5694 46.6491H19.5594Z" fill="#D90F0F"/>
<path d="M48.3494 32.7591C47.9494 30.5991 46.6794 29.1091 44.5694 28.4391C42.4294 27.7591 40.5094 28.2791 38.9194 29.8491C35.5894 33.1391 32.2894 36.4491 28.9794 39.7691C28.7194 40.0291 28.4694 40.3691 28.3594 40.7191C27.6094 43.1091 26.8794 45.4991 26.1694 47.9091C25.8594 48.9491 26.3394 49.8391 27.3594 50.2391C27.4094 50.2591 27.4594 50.2991 27.5094 50.3291H28.2494C30.6594 49.6491 33.0694 48.9691 35.4794 48.3091C36.0594 48.1491 36.5394 47.8691 36.9694 47.4491C40.0894 44.3191 43.2194 41.2091 46.3494 38.0791C46.6094 37.8191 46.8794 37.5591 47.1094 37.2791C48.2094 35.9591 48.6394 34.4291 48.3294 32.7591H48.3494ZM40.9494 38.2591C38.8594 40.3491 36.7694 42.4391 34.6694 44.5291C34.5594 44.6391 34.4394 44.7591 34.3094 44.7991C33.1294 45.1391 31.9494 45.4591 30.6694 45.8191C31.0494 44.5791 31.3894 43.4491 31.7394 42.3191C31.7694 42.2091 31.8594 42.1091 31.9494 42.0191C34.1194 39.8491 36.2894 37.6891 38.4594 35.5291C38.4994 35.4891 38.5494 35.4491 38.5694 35.4391C39.4294 36.3091 40.2894 37.1591 41.1594 38.0391C41.1194 38.0791 41.0394 38.1791 40.9594 38.2591H40.9494ZM43.9094 35.2791C43.0494 34.4191 42.1994 33.5691 41.3194 32.6991C42.1994 31.6891 43.3894 31.5691 44.2194 32.4191C44.8994 33.1191 45.0194 34.4691 43.9094 35.2791Z" fill="#D90F0F"/>
<path d="M34.1394 14.1191C27.8994 14.1191 21.6694 14.1191 15.4294 14.1191C15.3194 14.1191 15.2094 14.1191 15.1094 14.1291C14.2294 14.2191 13.5494 14.8691 13.4494 15.7291C13.3094 16.9091 14.1494 17.8091 15.4094 17.8191C18.5194 17.8191 21.6294 17.8191 24.7394 17.8191C25.6194 17.8191 26.4994 17.8191 27.3694 17.8191C29.6494 17.8191 31.9294 17.8191 34.2094 17.8191C35.3394 17.8191 36.1494 17.0191 36.1394 15.9591C36.1394 14.8791 35.3194 14.1291 34.1394 14.1291V14.1191Z" fill="#D90F0F"/>
<path d="M34.4094 25.1991C35.1794 25.1291 35.7394 24.7391 36.0194 24.0091C36.4994 22.7691 35.5994 21.5191 34.2094 21.5191C31.0694 21.5091 27.9294 21.5191 24.7894 21.5191C24.0794 21.5191 23.3694 21.5191 22.6594 21.5191C20.2294 21.5191 17.7894 21.5191 15.3594 21.5191C14.2594 21.5191 13.4794 22.2491 13.4294 23.2791C13.3694 24.3991 14.2194 25.2091 15.4694 25.2091C21.5494 25.2091 27.6294 25.2091 33.7094 25.2091C33.9394 25.2091 34.1694 25.2191 34.3994 25.2091L34.4094 25.1991Z" fill="#D90F0F"/>
<path d="M15.3694 28.8991C14.3694 28.8991 13.5994 29.5291 13.4594 30.4291C13.2794 31.6091 14.0994 32.5791 15.3294 32.5891C17.2394 32.5991 19.1394 32.5891 21.0494 32.5891C22.9594 32.5891 24.8294 32.5891 26.7294 32.5891C27.7294 32.5891 28.4994 31.9591 28.6394 31.0591C28.8194 29.8791 27.9994 28.9091 26.7694 28.8991C24.8594 28.8891 22.9594 28.8991 21.0494 28.8991C19.1594 28.8991 17.2694 28.8991 15.3694 28.8991Z" fill="#D90F0F"/>
</svg>
