<svg width="97" height="19" viewBox="0 0 97 19" fill="none" xmlns="http://www.w3.org/2000/svg">
<path d="M62.7893 7.70088H74.8158V11.2991H62.7893V7.70088ZM55.6039 4.10044V14.8996C55.6039 16.7681 57.1132 18.4978 59.2087 18.4978H74.8158V14.8996H62.8202C62.1393 14.8996 61.6083 14.3707 61.6083 13.6921V5.30793C61.6083 4.62927 62.1327 4.09824 62.8114 4.09824H74.8158V0.5H59.2087C57.1154 0.5 55.6039 2.23191 55.6039 4.10044ZM53.2197 4.10044V6.42949C53.2197 7.78021 52.486 8.88413 51.4746 9.4989C52.486 10.1137 53.2197 11.2176 53.2197 12.5683V14.8974C53.2197 16.9972 51.4548 18.4978 49.6171 18.4978H34.0034V0.5H49.6171C51.4526 0.5 53.2197 2.00055 53.2197 4.10044ZM47.2197 5.30793C47.2197 4.62927 46.6931 4.10044 46.0122 4.10044H40.0122V14.8996H46.0122C46.6931 14.8996 47.2197 14.3707 47.2197 13.6921V12.5088C47.2197 11.8302 46.6931 11.2991 46.0122 11.2991H41.1867V7.70088H46.0122C46.6931 7.70088 47.2197 7.16985 47.2197 6.49119V5.30793ZM77.2043 0.5V4.10044H83.7816V16.7571C83.7816 17.7707 84.4515 18.4978 85.4871 18.4978H89.8125V4.10044H96.414V0.5H77.2021H77.2043Z" fill="url(#paint0_linear_9634_4363)"/>
<path d="M27.9374 0.5C30.0307 0.5 31.5577 2.25615 31.5577 4.12468V7.66563C31.5577 9.53415 30.0329 11.3013 27.9396 11.3013H19.5797C18.901 11.3013 18.3502 11.8346 18.3502 12.5132V14.9018H31.5577V18.5H12.3436V11.3167C12.3436 9.44822 13.8683 7.70088 15.9638 7.70088H24.3436C25.0244 7.70088 25.5511 7.16985 25.5511 6.49119V5.30793C25.5511 4.62927 25.0244 4.10044 24.3436 4.10044H12.3458V0.5H27.9396H27.9374Z" fill="url(#paint1_linear_9634_4363)"/>
<path d="M3.89112 6.06151V18.4978H9.89993V2.24073C9.89993 0.539662 8.2848 0.5 8.2848 0.5H5.06115C3.93519 2.11733 2.76295 2.95465 0.585938 3.35788V6.94289C1.79123 6.94289 3.34246 6.52203 3.89112 6.06151Z" fill="url(#paint2_linear_9634_4363)"/>
<defs>
<linearGradient id="paint0_linear_9634_4363" x1="0.585937" y1="14.7941" x2="96.414" y2="14.7941" gradientUnits="userSpaceOnUse">
<stop stop-color="#D90F0F"/>
<stop offset="0.776042" stop-color="#FF8651"/>
</linearGradient>
<linearGradient id="paint1_linear_9634_4363" x1="0.585937" y1="14.7941" x2="96.414" y2="14.7941" gradientUnits="userSpaceOnUse">
<stop stop-color="#D90F0F"/>
<stop offset="0.776042" stop-color="#FF8651"/>
</linearGradient>
<linearGradient id="paint2_linear_9634_4363" x1="0.585937" y1="14.7941" x2="96.414" y2="14.7941" gradientUnits="userSpaceOnUse">
<stop stop-color="#D90F0F"/>
<stop offset="0.776042" stop-color="#FF8651"/>
</linearGradient>
</defs>
</svg>
